<svg width="250" height="250" viewBox="0 0 250 250" fill="none" xmlns="http://www.w3.org/2000/svg">
<path d="M147.074 9.60181C151.653 9.57808 156.186 10.5203 160.375 12.3704L161.567 12.8977V13.0129C161.829 13.1636 162.075 13.3121 162.281 13.4387C162.482 13.5619 162.652 13.6699 162.773 13.7473C162.834 13.7859 162.882 13.817 162.916 13.8391C162.927 13.8462 162.936 13.8525 162.944 13.8577L162.946 13.8586L162.948 13.8606L162.95 13.8616C163.229 13.6738 163.491 13.5031 163.674 13.3958L163.681 13.3918L163.688 13.3879C168.567 10.5758 174.7 12.8733 177.587 17.803H177.589C178.843 19.8336 179.384 22.2235 179.129 24.5959C178.929 26.4577 178.246 28.2241 177.161 29.7288L177.19 29.7942C181.903 40.7079 183.836 52.6214 182.812 64.4651L182.811 64.4895L182.808 64.5129C181.849 73.1769 179.557 81.6391 176.015 89.6028L175.671 90.5999L175.657 90.6409C175.477 91.1278 175.309 91.6056 175.14 92.0999L175.137 92.1096L173.247 91.4534L175.136 92.1096C172.082 100.904 170.516 110.147 170.5 119.456C170.5 135.265 173.153 150.869 180.322 163.367C180.805 164.198 181.084 165.129 181.138 166.086C181.191 167.045 181.017 168.003 180.63 168.881C180.242 169.759 179.651 170.531 178.907 171.137L178.908 171.138C178.307 171.629 177.616 171.995 176.877 172.226C178.445 181.617 180.703 196.062 182.614 208.472C183.636 215.107 184.56 221.164 185.229 225.563C185.563 227.762 185.833 229.547 186.02 230.781C186.113 231.399 186.185 231.88 186.234 232.205C186.259 232.368 186.277 232.492 186.29 232.575C186.296 232.617 186.301 232.649 186.305 232.67C186.306 232.68 186.308 232.688 186.309 232.694C186.309 232.696 186.309 232.699 186.31 232.7V232.701V232.702L186.318 232.762L186.324 232.823C186.363 233.255 186.353 233.691 186.302 234.123V234.658L186.266 234.847C186.204 235.164 186.117 235.458 186.059 235.653L186.047 235.691L186.033 235.73C185.565 237.092 184.684 238.275 183.509 239.114C182.335 239.952 180.928 240.401 179.487 240.399V240.4H145.774L145.767 238.408C145.756 235.793 146.427 233.22 147.708 230.942V230.941C148.99 228.663 150.842 226.755 153.083 225.406L153.155 225.363L153.23 225.325C155.806 224.058 158.519 223.106 161.309 222.484C150.096 214.89 140.203 205.502 132.027 194.691C128.042 199.15 124.598 204.068 121.771 209.344C118.098 216.459 115.735 224.176 114.793 232.128C114.674 233.292 114.465 234.444 114.169 235.574L114.167 235.581C113.821 236.884 113.07 238.045 112.022 238.896C110.977 239.746 109.689 240.242 108.344 240.317L108.289 240.321H105.643L74.9766 240.253L72.9609 240.248L72.9805 238.233C73.0084 235.463 73.6958 229.571 78.9043 225.946C83.0729 223.044 87.8957 222.029 92.6787 221.603C90.1808 211.061 89.7938 201.787 91.6123 191.621L91.6143 191.61L91.8818 190.236C94.706 176.462 101.467 163.803 111.346 153.793C109.174 145.775 107.731 137.577 107.038 129.3L70.042 136.761L70.041 136.76C67.8177 137.216 65.5043 136.842 63.5391 135.704L63.5303 135.698L63.5215 135.694L53.6006 129.814L53.5479 129.782L53.4971 129.747C52.8502 129.308 50.9663 128.169 49.1719 127.098C48.2901 126.572 47.452 126.074 46.834 125.709C46.5251 125.527 46.2711 125.377 46.0947 125.273C46.0118 125.224 45.9457 125.186 45.8994 125.158C45.3595 124.903 44.882 124.529 44.5068 124.059L44.5049 124.056C44.0929 123.538 43.8198 122.926 43.708 122.277C43.5948 121.619 43.6533 120.95 43.8682 120.329C44.0778 119.724 44.4351 119.178 44.9092 118.74L44.9072 118.739L46.042 117.658L46.0889 117.615L46.1387 117.573C49.515 114.751 55.1861 112.451 62.6045 115.675L66.1201 116.739L66.1211 116.74C66.4952 116.853 66.8886 116.89 67.2773 116.851C67.6673 116.81 68.0446 116.695 68.3896 116.508L68.4189 116.492L68.4482 116.478L105.945 97.7708L70.2285 70.7961L70.1914 70.7678L70.1553 70.7375C68.9974 69.7744 68.1084 68.5269 67.5752 67.1194C67.5684 67.1041 67.56 67.0846 67.5498 67.0618C67.5202 66.9956 67.4763 66.8983 67.4209 66.7747C67.3101 66.5271 67.1512 66.1725 66.96 65.7463C66.5773 64.8934 66.0643 63.7522 65.543 62.5989C65.0211 61.4445 64.4928 60.2813 64.0781 59.3831C63.8704 58.933 63.6938 58.5557 63.5625 58.2815C63.4966 58.1437 63.4466 58.0401 63.4111 57.97C63.4065 57.9608 63.4021 57.9526 63.3984 57.9456L63.3906 57.9338L63.3438 57.8489L60.1445 51.969V51.968C59.0959 50.1529 58.7324 48.0226 59.1221 45.9612L59.1523 45.7991L59.21 45.6428C59.5134 44.8175 60.0994 44.1872 60.8721 43.8069C61.5476 43.4744 62.2867 43.3705 62.9756 43.3616C64.7721 43.2234 66.5756 43.2234 68.3721 43.3616C70.3431 43.388 72.277 43.9108 73.9932 44.886H73.9922C75.6243 45.8124 77.0071 47.1171 78.0264 48.6877L78.2256 49.0061L78.2344 49.0198L78.2422 49.0334L81.8545 55.2385C82.4823 56.0699 83.3006 56.7387 84.2412 57.1887L119.842 70.5002C119.844 70.4961 119.847 70.4917 119.85 70.4875L120.097 70.1213C120.78 69.1458 121.513 68.2059 122.294 67.3049C128.392 60.1091 128.349 56.3828 127.555 54.636C127.125 53.6896 126.337 52.9517 125.365 52.3782C124.394 51.8047 123.351 51.4638 122.605 51.2678L122.552 51.2532L122.499 51.2366C122.048 51.0908 121.607 50.9 121.188 50.6643L121.151 50.6438L121.116 50.6223C119.571 49.6686 118.795 48.4309 118.431 47.0784C118.264 46.46 118.192 45.8482 118.145 45.3167C118.09 44.7016 118.075 44.34 118.018 43.7971L118.017 43.7893V43.7805C117.937 42.9661 118.334 42.3783 118.633 42.0784C118.905 41.8053 119.197 41.6566 119.354 41.5842C119.682 41.4322 120.047 41.3381 120.327 41.2747C120.925 41.1394 121.754 41.0114 122.688 40.8743L122.999 40.8186C123.718 40.6634 124.393 40.3443 124.972 39.885L125.212 39.6799C125.757 39.1845 126.182 38.5701 126.453 37.8821V37.8801L126.854 36.8665L126.855 36.8606C126.845 36.8868 126.857 36.8546 126.866 36.7581C124.744 37.4127 123.046 36.9684 122.055 36.761C122.005 36.7505 121.958 36.7437 121.916 36.7356C121.904 36.7763 121.89 36.8204 121.878 36.8694L121.877 36.8684C121.599 37.9698 120.71 38.5068 120.031 38.678C119.36 38.8472 118.576 38.769 117.906 38.3567L117.794 38.2883L117.693 38.2063C116.348 37.1136 115.318 35.6852 114.704 34.0686L114.656 34.0432L114.565 33.9797L114.392 33.8596L114.368 33.844C113.425 33.1738 112.646 32.2994 112.088 31.2864L111.889 30.8997C111.464 30.014 111.214 29.055 111.15 28.0745C111.15 28.0736 111.15 28.0724 111.149 28.0706C111.148 28.0598 111.146 28.0416 111.144 28.0159C111.138 27.9651 111.13 27.8903 111.119 27.7942C111.098 27.6019 111.067 27.3273 111.03 26.9983C110.957 26.341 110.858 25.4645 110.76 24.5862C110.661 23.7079 110.563 22.826 110.489 22.1565C110.452 21.822 110.421 21.538 110.399 21.3342C110.389 21.2333 110.379 21.1488 110.373 21.0862C110.37 21.0555 110.367 21.0244 110.364 20.9983C110.363 20.9859 110.362 20.9684 110.36 20.9495C110.36 20.9401 110.358 20.9242 110.357 20.9055C110.357 20.8958 110.354 20.8476 110.354 20.7874V20.7698L110.354 20.7522C110.374 19.6564 110.825 18.6132 111.608 17.8489L111.759 17.7092C112.524 17.0334 113.513 16.6609 114.539 16.6672H114.567L114.596 16.6682H114.602C114.606 16.6684 114.613 16.6689 114.622 16.6692C114.641 16.6698 114.67 16.671 114.708 16.6721C114.784 16.6744 114.897 16.6774 115.039 16.6809C115.324 16.688 115.73 16.6967 116.209 16.7024C117.172 16.7139 118.411 16.713 119.556 16.6682L124.576 16.4299C125.617 16.3436 126.647 16.1552 127.651 15.8694C131.416 13.1459 135.714 11.2451 140.266 10.2961L140.27 10.2952C142.508 9.83255 144.788 9.59913 147.074 9.59985V9.60181ZM111.146 28.0315C111.148 28.0452 111.149 28.0561 111.149 28.0598C111.148 28.038 111.146 28.0162 111.145 27.9944L111.146 28.0315Z" fill="#1D1D1B" stroke="white" stroke-width="4"/>
</svg>
