<svg width="300" height="300" viewBox="0 0 300 300" fill="none" xmlns="http://www.w3.org/2000/svg">
<path fill-rule="evenodd" clip-rule="evenodd" d="M300 0V300H150C232.843 300 300 232.843 300 150H0C0 232.843 67.1573 300 150 300H0V0H300ZM75 30C50.1472 30 30 50.1472 30 75C30 99.8528 50.1472 120 75 120C99.8528 120 120 99.8528 120 75C120 50.1472 99.8528 30 75 30ZM225 30C200.147 30 180 50.1472 180 75C180 99.8528 200.147 120 225 120C249.853 120 270 99.8528 270 75C270 50.1472 249.853 30 225 30Z" fill="#131313"/>
</svg>
