<?xml version="1.0" encoding="UTF-8"?>
<svg width="450px" height="180px" viewBox="0 0 450 180" version="1.1" xmlns="http://www.w3.org/2000/svg" xmlns:xlink="http://www.w3.org/1999/xlink">
    <title>logo padded</title>
    <g id="logo-padded" stroke="none" stroke-width="1" fill="none" fill-rule="evenodd">
        <g id="tonk" transform="translate(167.520000, 52.400000)" fill="#131313" fill-rule="nonzero">
            <path d="M26.28,25.8 L45.48,25.8 L45.48,37.68 L26.28,37.68 L26.28,67.8 C26.36,70.28 27.06,72.2 28.38,73.56 C29.7,74.92 31.6,75.6 34.08,75.6 L45.96,75.6 L45.96,87.6 L28.92,87.6 C23.64,87.6 19.5,86.06 16.5,82.98 C13.5,79.9 12,75.64 12,70.2 L12,37.68 L0,37.68 L0,25.8 L12,25.8 L12,10.2 L26.28,5.76 L26.28,25.8 Z" id="Path"></path>
            <path d="M111.4,56.76 C111.4,67 108.64,75 103.12,80.76 C97.6,86.52 89.96,89.4 80.2,89.4 C70.44,89.4 62.8,86.5 57.28,80.7 C51.76,74.9 49,66.92 49,56.76 C49,46.52 51.76,38.5 57.28,32.7 C62.8,26.9 70.44,24 80.2,24 C89.96,24 97.6,26.9 103.12,32.7 C108.64,38.5 111.4,46.52 111.4,56.76 Z M97,56.76 C97,50.2 95.52,45.08 92.56,41.4 C89.6,37.72 85.48,35.88 80.2,35.88 C74.92,35.88 70.78,37.72 67.78,41.4 C64.78,45.08 63.28,50.2 63.28,56.76 C63.28,63.24 64.78,68.3 67.78,71.94 C70.78,75.58 74.92,77.4 80.2,77.4 C85.48,77.4 89.6,75.58 92.56,71.94 C95.52,68.3 97,63.24 97,56.76 Z" id="Shape"></path>
            <path d="M147.56,36.24 C142.76,36.24 139,37.74 136.28,40.74 C133.56,43.74 132.2,47.92 132.2,53.28 L132.2,87.6 L117.92,87.6 L117.92,25.8 L132.2,25.8 L132.2,35.4 C134.28,31.72 137.06,28.9 140.54,26.94 C144.02,24.98 148.08,24 152.72,24 C160,24 165.68,26.26 169.76,30.78 C173.84,35.3 175.88,41.52 175.88,49.44 L175.88,87.6 L161.6,87.6 L161.6,51 C161.6,46.36 160.38,42.74 157.94,40.14 C155.5,37.54 152.04,36.24 147.56,36.24 Z" id="Path"></path>
            <polygon id="Path" points="199.68 0 199.56 51.84 222.24 25.8 239.52 25.8 213.36 55.08 240.36 87.6 222.6 87.6 199.56 58.92 199.56 87.6 185.28 87.6 185.28 0"></polygon>
        </g>
        <path d="M140,40 L140,140 L90,140 C117.614237,140 140,117.614237 140,90 L40,90 C40,117.614237 62.3857625,140 90,140 L40,140 L40,40 L140,40 Z M65,50 C56.7157288,50 50,56.7157288 50,65 C50,73.2842712 56.7157288,80 65,80 C73.2842712,80 80,73.2842712 80,65 C80,56.7157288 73.2842712,50 65,50 Z M115,50 C106.715729,50 100,56.7157288 100,65 C100,73.2842712 106.715729,80 115,80 C123.284271,80 130,73.2842712 130,65 C130,56.7157288 123.284271,50 115,50 Z" id="tonk" fill="#131313"></path>
        <rect id="Rectangle" x="0" y="0" width="450" height="180"></rect>
    </g>
</svg>